<svg width="42" height="42" viewBox="0 0 42 42" fill="none" xmlns="http://www.w3.org/2000/svg">
<g filter="url(#filter0_ddd_1522_2753)">
<rect x="5" y="4" width="32" height="32" rx="6" fill="#2196F3" fill-opacity="0.08" shape-rendering="crispEdges"/>
<g clip-path="url(#clip0_1522_2753)">
<path d="M19.3333 20.8333C19.6912 21.3118 20.1478 21.7077 20.6721 21.9941C21.1964 22.2806 21.7762 22.4509 22.3722 22.4936C22.9681 22.5363 23.5663 22.4503 24.1261 22.2415C24.6859 22.0327 25.1942 21.7059 25.6166 21.2833L28.1166 18.7833C28.8756 17.9975 29.2956 16.945 29.2861 15.8525C29.2766 14.76 28.8384 13.715 28.0659 12.9424C27.2934 12.1699 26.2483 11.7317 25.1558 11.7222C24.0633 11.7127 23.0108 12.1327 22.225 12.8917L20.7916 14.3167" stroke="#2196F3" stroke-width="1.66667" stroke-linecap="round" stroke-linejoin="round"/>
<path d="M22.6667 19.1667C22.3088 18.6882 21.8522 18.2923 21.3279 18.0059C20.8035 17.7194 20.2237 17.5491 19.6278 17.5064C19.0318 17.4637 18.4337 17.5497 17.8739 17.7585C17.3141 17.9673 16.8057 18.2941 16.3833 18.7167L13.8833 21.2167C13.1243 22.0025 12.7043 23.055 12.7138 24.1475C12.7233 25.24 13.1615 26.285 13.9341 27.0576C14.7066 27.8301 15.7517 28.2683 16.8441 28.2778C17.9366 28.2873 18.9891 27.8673 19.775 27.1083L21.2 25.6833" stroke="#2196F3" stroke-width="1.66667" stroke-linecap="round" stroke-linejoin="round"/>
</g>
<rect x="5.5" y="4.5" width="31" height="31" rx="5.5" stroke="#2196F3" shape-rendering="crispEdges"/>
</g>
<defs>
<filter id="filter0_ddd_1522_2753" x="0" y="0" width="42" height="42" filterUnits="userSpaceOnUse" color-interpolation-filters="sRGB">
<feFlood flood-opacity="0" result="BackgroundImageFix"/>
<feColorMatrix in="SourceAlpha" type="matrix" values="0 0 0 0 0 0 0 0 0 0 0 0 0 0 0 0 0 0 127 0" result="hardAlpha"/>
<feMorphology radius="2" operator="erode" in="SourceAlpha" result="effect1_dropShadow_1522_2753"/>
<feOffset dy="3"/>
<feGaussianBlur stdDeviation="0.5"/>
<feComposite in2="hardAlpha" operator="out"/>
<feColorMatrix type="matrix" values="0 0 0 0 0 0 0 0 0 0 0 0 0 0 0 0 0 0 0.2 0"/>
<feBlend mode="normal" in2="BackgroundImageFix" result="effect1_dropShadow_1522_2753"/>
<feColorMatrix in="SourceAlpha" type="matrix" values="0 0 0 0 0 0 0 0 0 0 0 0 0 0 0 0 0 0 127 0" result="hardAlpha"/>
<feOffset dy="2"/>
<feGaussianBlur stdDeviation="1"/>
<feComposite in2="hardAlpha" operator="out"/>
<feColorMatrix type="matrix" values="0 0 0 0 0 0 0 0 0 0 0 0 0 0 0 0 0 0 0.14 0"/>
<feBlend mode="normal" in2="effect1_dropShadow_1522_2753" result="effect2_dropShadow_1522_2753"/>
<feColorMatrix in="SourceAlpha" type="matrix" values="0 0 0 0 0 0 0 0 0 0 0 0 0 0 0 0 0 0 127 0" result="hardAlpha"/>
<feOffset dy="1"/>
<feGaussianBlur stdDeviation="2.5"/>
<feComposite in2="hardAlpha" operator="out"/>
<feColorMatrix type="matrix" values="0 0 0 0 0 0 0 0 0 0 0 0 0 0 0 0 0 0 0.12 0"/>
<feBlend mode="normal" in2="effect2_dropShadow_1522_2753" result="effect3_dropShadow_1522_2753"/>
<feBlend mode="normal" in="SourceGraphic" in2="effect3_dropShadow_1522_2753" result="shape"/>
</filter>
<clipPath id="clip0_1522_2753">
<rect width="20" height="20" fill="white" transform="translate(11 10)"/>
</clipPath>
</defs>
</svg>
