<svg width="20" height="20" viewBox="0 0 20 20" fill="none" xmlns="http://www.w3.org/2000/svg">
<g clip-path="url(#clip0_1009_469)">
<path d="M16.6665 1.66666H3.33317C2.4127 1.66666 1.6665 2.41285 1.6665 3.33332V6.66666C1.6665 7.58713 2.4127 8.33332 3.33317 8.33332H16.6665C17.587 8.33332 18.3332 7.58713 18.3332 6.66666V3.33332C18.3332 2.41285 17.587 1.66666 16.6665 1.66666Z" stroke="#636366" stroke-width="1.66667" stroke-linecap="round" stroke-linejoin="round"/>
<path d="M16.6665 11.6667H3.33317C2.4127 11.6667 1.6665 12.4128 1.6665 13.3333V16.6667C1.6665 17.5871 2.4127 18.3333 3.33317 18.3333H16.6665C17.587 18.3333 18.3332 17.5871 18.3332 16.6667V13.3333C18.3332 12.4128 17.587 11.6667 16.6665 11.6667Z" stroke="#636366" stroke-width="1.66667" stroke-linecap="round" stroke-linejoin="round"/>
<path d="M5 5H5.00833" stroke="#636366" stroke-width="1.66667" stroke-linecap="round" stroke-linejoin="round"/>
<path d="M5 15H5.00833" stroke="#636366" stroke-width="1.66667" stroke-linecap="round" stroke-linejoin="round"/>
</g>
<defs>
<clipPath id="clip0_1009_469">
<rect width="20" height="20" fill="white"/>
</clipPath>
</defs>
</svg>
