<svg width="163" height="34" viewBox="0 0 163 34" fill="none" xmlns="http://www.w3.org/2000/svg">
<path fill-rule="evenodd" clip-rule="evenodd" d="M24.7334 9.70969C24.7333 9.70967 24.7334 9.70971 24.7334 9.70969C24.7327 9.70899 24.7319 9.70831 24.7312 9.70761L24.7479 9.72454C24.7431 9.71949 24.7381 9.71464 24.7334 9.70969ZM15.766 7.92938C15.9296 7.9153 16.0935 7.9058 16.2574 7.89903L16.8706 10.7694C16.4729 10.8186 16.0813 10.8974 15.6988 11.0061L15.0594 8.01272C15.2938 7.97785 15.5294 7.94963 15.766 7.92938ZM18.7059 10.7344C18.6825 9.86293 18.8461 8.99493 19.1693 8.14194C19.567 8.22522 19.9558 8.32768 20.3317 8.44854C19.9959 9.28194 19.8515 10.0948 19.9092 10.9042C19.5085 10.8231 19.1066 10.7663 18.7059 10.7344ZM10.916 9.62426C11.2887 9.35917 11.6797 9.12595 12.0856 8.92487C13.0876 9.58741 13.8483 10.5057 14.2549 11.5853C13.895 11.7766 13.5491 11.9986 13.2213 12.2536C12.8883 11.1359 12.0815 10.2128 10.916 9.62426ZM17.7088 11.9027C17.7851 11.9005 17.8616 11.8995 17.9384 11.8996C20.0004 11.9025 22.2337 12.7149 24.0642 14.1678C21.2689 15.88 18.7102 17.1763 14.8112 17.7932L14.3712 17.8629L14.3123 18.3045C13.9911 20.713 14.278 23.6175 15.9101 25.943C15.0372 26.6011 14.69 27.3963 14.6604 28.0592C14.6426 28.4565 14.7149 28.7954 14.7725 29.0341C14.7764 29.0502 14.7792 29.0621 14.7818 29.0727C14.7854 29.0879 14.7884 29.1007 14.7932 29.1202C13.3845 30.3794 11.926 31.0856 10.3323 31.1753C10.363 31.1361 10.3939 31.0967 10.425 31.057C10.9013 30.45 11.4231 29.7848 11.924 29.0689C12.7277 27.9205 13.4628 26.7739 13.3326 25.5985L13.3231 25.5125L13.2897 25.4329C13.2897 25.4329 12.7131 24.0596 12.1851 22.4103C11.6569 20.7609 11.2259 18.7766 11.3719 17.9173C12.0469 13.9454 14.3921 12.2134 17.1807 11.9361C17.355 11.9188 17.5312 11.9078 17.7088 11.9027ZM15.4575 18.8849C19.84 18.1093 22.7045 16.4389 25.9202 14.4124C26.4204 15.4589 27.0351 17.5315 27.3979 19.7771C27.7813 22.1504 27.9283 24.7606 27.6543 26.7116L27.1372 26.5049C27.1261 26.4047 27.1151 26.3045 27.1041 26.2044C26.9286 24.6068 26.7532 23.0105 26.0912 21.0461L25.9515 20.6318L25.5145 20.6395C23.7777 20.6698 21.9192 20.1 20.3648 19.3071L19.6516 18.9435L19.5055 19.7305C19.4942 19.7915 19.4827 19.8518 19.4714 19.9116C19.3457 20.5746 19.2329 21.1698 19.4266 21.7933C19.6378 22.4732 20.2367 22.9895 21.1872 23.3891L21.1913 23.3909L25.3644 25.071C26.0662 26.9321 26.1421 28.7612 26.2206 30.6512C26.2479 31.3084 26.2755 31.9728 26.3298 32.6486C25.9362 32.4491 25.5332 32.2498 25.1278 32.0492C23.1531 31.0723 21.1207 30.0668 19.8377 28.8863C19.779 28.0585 19.5665 27.2743 19.1185 26.6532C18.6775 26.0418 17.9698 25.619 17.1327 25.5785C15.6187 23.6555 15.2415 21.1034 15.4575 18.8849ZM14.8358 29.2976C14.8414 29.3252 14.8345 29.3245 14.8351 29.295C14.8351 29.2955 14.8357 29.2971 14.8358 29.2976C14.8359 29.2979 14.8358 29.2975 14.8358 29.2976Z" fill="#8C7548"/>
<path d="M16.8484 1.35191C16.2647 1.35689 15.6897 1.40636 15.1291 1.50517C12.0379 2.05023 9.19088 3.24216 7.07902 4.96261C4.96711 6.68307 3.58791 8.90648 3.33929 11.6068L3.33902 11.6094L3.33876 11.6121C2.77763 17.1826 5.95496 21.7304 7.69527 23.6683C8.04125 24.0537 8.16437 24.5697 8.12911 25.0537C8.09391 25.5377 7.92723 26.0162 7.69096 26.5039C7.21854 27.4792 6.44896 28.5 5.63037 29.4561C4.70354 30.5387 3.8125 31.4286 3.12354 32.0876C3.60186 32.007 4.10396 31.7974 4.62897 31.4655C5.60248 30.8502 6.59153 29.8402 7.42447 28.723C8.2574 27.6058 8.939 26.3802 9.3371 25.3638C9.53619 24.8555 9.66329 24.3983 9.70991 24.0543C9.75639 23.7104 9.69815 23.4971 9.6864 23.4774C8.66773 21.7688 7.61074 20.0225 6.98453 18.2239C6.35832 16.4253 6.17437 14.534 6.97968 12.6889C8.65464 8.8513 12.1607 7.03874 15.6638 6.73858C19.157 6.43926 22.6996 7.5615 24.7305 9.70687L24.7334 9.70969L26.2779 11.2L30.8768 8.44615C29.5261 6.69874 27.1919 4.77189 24.4859 3.38221C22.2582 2.2383 19.7908 1.45789 17.4349 1.3616C17.2385 1.35363 17.0429 1.35018 16.8484 1.35191Z" fill="#C03838"/>
<path d="M48.448 23H43.392C43.1893 23 43.04 22.9573 42.944 22.872C42.8587 22.776 42.816 22.6267 42.816 22.424V20.552C42.816 20.3493 42.8587 20.2053 42.944 20.12C43.04 20.024 43.1893 19.976 43.392 19.976H47.696C47.8347 19.976 47.936 19.9333 48 19.848C48.0747 19.752 48.112 19.64 48.112 19.512C48.112 19.3307 48.0747 19.1973 48 19.112C47.936 19.0267 47.8347 18.9787 47.696 18.968L45.296 18.632C44.5493 18.5253 43.9467 18.28 43.488 17.896C43.04 17.512 42.816 16.872 42.816 15.976V14.296C42.816 13.3893 43.1093 12.696 43.696 12.216C44.2827 11.7253 45.0933 11.48 46.128 11.48H50.608C50.8107 11.48 50.9547 11.528 51.04 11.624C51.136 11.7093 51.184 11.8533 51.184 12.056V13.96C51.184 14.1627 51.136 14.312 51.04 14.408C50.9547 14.4933 50.8107 14.536 50.608 14.536H46.88C46.7413 14.536 46.6347 14.584 46.56 14.68C46.4853 14.7653 46.448 14.8773 46.448 15.016C46.448 15.1547 46.4853 15.272 46.56 15.368C46.6347 15.464 46.7413 15.5173 46.88 15.528L49.264 15.848C50.0107 15.9547 50.6133 16.2 51.072 16.584C51.5307 16.968 51.76 17.608 51.76 18.504V20.184C51.76 21.0907 51.4613 21.7893 50.864 22.28C50.2773 22.76 49.472 23 48.448 23ZM56.5663 23H54.0863C53.8836 23 53.7343 22.9573 53.6383 22.872C53.5529 22.776 53.5103 22.6267 53.5103 22.424V12.056C53.5103 11.8533 53.5529 11.7093 53.6383 11.624C53.7343 11.528 53.8836 11.48 54.0863 11.48H56.5663C56.7689 11.48 56.9129 11.528 56.9983 11.624C57.0943 11.7093 57.1423 11.8533 57.1423 12.056V15.528H59.8143V12.056C59.8143 11.8533 59.8569 11.7093 59.9423 11.624C60.0383 11.528 60.1876 11.48 60.3903 11.48H62.8703C63.0729 11.48 63.2169 11.528 63.3023 11.624C63.3983 11.7093 63.4463 11.8533 63.4463 12.056V22.424C63.4463 22.6267 63.3983 22.776 63.3023 22.872C63.2169 22.9573 63.0729 23 62.8703 23H60.3903C60.1876 23 60.0383 22.9573 59.9423 22.872C59.8569 22.776 59.8143 22.6267 59.8143 22.424V18.872H57.1423V22.424C57.1423 22.6267 57.0943 22.776 56.9983 22.872C56.9129 22.9573 56.7689 23 56.5663 23ZM65.9709 23C65.7682 23 65.6189 22.9573 65.5229 22.872C65.4375 22.776 65.3949 22.6267 65.3949 22.424V20.52C65.3949 20.3173 65.4375 20.1733 65.5229 20.088C65.6189 19.992 65.7682 19.944 65.9709 19.944H67.5549V14.568H65.9709C65.7682 14.568 65.6189 14.5253 65.5229 14.44C65.4375 14.344 65.3949 14.1947 65.3949 13.992V12.056C65.3949 11.8533 65.4375 11.7093 65.5229 11.624C65.6189 11.528 65.7682 11.48 65.9709 11.48H72.7869C72.9895 11.48 73.1335 11.528 73.2189 11.624C73.3149 11.7093 73.3629 11.8533 73.3629 12.056V13.992C73.3629 14.1947 73.3149 14.344 73.2189 14.44C73.1335 14.5253 72.9895 14.568 72.7869 14.568H71.2349V19.944H72.7869C72.9895 19.944 73.1335 19.992 73.2189 20.088C73.3149 20.1733 73.3629 20.3173 73.3629 20.52V22.424C73.3629 22.6267 73.3149 22.776 73.2189 22.872C73.1335 22.9573 72.9895 23 72.7869 23H65.9709ZM83.3384 23H75.9144C75.7117 23 75.5624 22.9573 75.4664 22.872C75.381 22.776 75.3384 22.6267 75.3384 22.424V12.056C75.3384 11.8533 75.381 11.7093 75.4664 11.624C75.5624 11.528 75.7117 11.48 75.9144 11.48H83.3384C83.541 11.48 83.685 11.528 83.7704 11.624C83.8664 11.7093 83.9144 11.8533 83.9144 12.056V13.928C83.9144 14.1307 83.8664 14.28 83.7704 14.376C83.685 14.4613 83.541 14.504 83.3384 14.504H78.9224V15.736H82.0424C82.245 15.736 82.389 15.784 82.4744 15.88C82.5704 15.9653 82.6184 16.1093 82.6184 16.312V18.024C82.6184 18.2267 82.5704 18.376 82.4744 18.472C82.389 18.5573 82.245 18.6 82.0424 18.6H78.9224V19.976H83.3384C83.541 19.976 83.685 20.024 83.7704 20.12C83.8664 20.2053 83.9144 20.3493 83.9144 20.552V22.424C83.9144 22.6267 83.8664 22.776 83.7704 22.872C83.685 22.9573 83.541 23 83.3384 23ZM94.5271 23H86.3831C86.1805 23 86.0311 22.9573 85.9351 22.872C85.8498 22.776 85.8071 22.6267 85.8071 22.424V12.056C85.8071 11.8533 85.8498 11.7093 85.9351 11.624C86.0311 11.528 86.1805 11.48 86.3831 11.48H88.8631C89.0658 11.48 89.2098 11.528 89.2951 11.624C89.3911 11.7093 89.4391 11.8533 89.4391 12.056V19.976H91.6311V17.384C91.6311 17.1813 91.6738 17.0373 91.7591 16.952C91.8551 16.856 92.0045 16.808 92.2071 16.808H94.5271C94.7298 16.808 94.8738 16.856 94.9591 16.952C95.0551 17.0373 95.1031 17.1813 95.1031 17.384V22.424C95.1031 22.6267 95.0551 22.776 94.9591 22.872C94.8738 22.9573 94.7298 23 94.5271 23ZM102.9 23H97.5081C97.3055 23 97.1561 22.9573 97.0601 22.872C96.9748 22.776 96.9321 22.6267 96.9321 22.424V12.056C96.9321 11.8533 96.9748 11.7093 97.0601 11.624C97.1561 11.528 97.3055 11.48 97.5081 11.48H102.9C104.233 11.48 105.22 11.7467 105.86 12.28C106.511 12.8133 106.836 13.6347 106.836 14.744V19.736C106.836 20.8453 106.511 21.6667 105.86 22.2C105.22 22.7333 104.233 23 102.9 23ZM100.564 14.536V19.976H102.468C102.724 19.976 102.911 19.912 103.028 19.784C103.156 19.656 103.22 19.4587 103.22 19.192V15.304C103.22 15.0373 103.156 14.8453 103.028 14.728C102.911 14.6 102.724 14.536 102.468 14.536H100.564ZM112.486 14.36V16.408H113.686C113.963 16.408 114.15 16.3387 114.246 16.2C114.342 16.0507 114.39 15.8693 114.39 15.656V15.112C114.39 14.8987 114.342 14.7227 114.246 14.584C114.15 14.4347 113.963 14.36 113.686 14.36H112.486ZM111.91 23H109.446C109.243 23 109.094 22.9573 108.998 22.872C108.912 22.776 108.87 22.6267 108.87 22.424V12.056C108.87 11.8533 108.912 11.7093 108.998 11.624C109.094 11.528 109.243 11.48 109.446 11.48H114.774C115.968 11.48 116.79 11.7307 117.238 12.232C117.696 12.7227 117.926 13.3627 117.926 14.152V14.888C117.926 15.336 117.856 15.72 117.718 16.04C117.59 16.3493 117.36 16.5733 117.03 16.712C117.606 16.776 118.07 17.0107 118.422 17.416C118.784 17.8213 118.966 18.36 118.966 19.032V22.424C118.966 22.6267 118.918 22.776 118.822 22.872C118.736 22.9573 118.592 23 118.39 23H115.91C115.707 23 115.558 22.9573 115.462 22.872C115.376 22.776 115.334 22.6267 115.334 22.424V19.976C115.334 19.7413 115.286 19.5707 115.19 19.464C115.104 19.3467 114.95 19.288 114.726 19.288H112.486V22.424C112.486 22.6267 112.438 22.776 112.342 22.872C112.256 22.9573 112.112 23 111.91 23ZM121.08 23C120.878 23 120.728 22.9573 120.632 22.872C120.547 22.776 120.504 22.6267 120.504 22.424V20.52C120.504 20.3173 120.547 20.1733 120.632 20.088C120.728 19.992 120.878 19.944 121.08 19.944H122.664V14.568H121.08C120.878 14.568 120.728 14.5253 120.632 14.44C120.547 14.344 120.504 14.1947 120.504 13.992V12.056C120.504 11.8533 120.547 11.7093 120.632 11.624C120.728 11.528 120.878 11.48 121.08 11.48H127.896C128.099 11.48 128.243 11.528 128.328 11.624C128.424 11.7093 128.472 11.8533 128.472 12.056V13.992C128.472 14.1947 128.424 14.344 128.328 14.44C128.243 14.5253 128.099 14.568 127.896 14.568H126.344V19.944H127.896C128.099 19.944 128.243 19.992 128.328 20.088C128.424 20.1733 128.472 20.3173 128.472 20.52V22.424C128.472 22.6267 128.424 22.776 128.328 22.872C128.243 22.9573 128.099 23 127.896 23H121.08ZM135.792 23H130.736C130.533 23 130.384 22.9573 130.288 22.872C130.202 22.776 130.16 22.6267 130.16 22.424V20.552C130.16 20.3493 130.202 20.2053 130.288 20.12C130.384 20.024 130.533 19.976 130.736 19.976H135.04C135.178 19.976 135.28 19.9333 135.344 19.848C135.418 19.752 135.456 19.64 135.456 19.512C135.456 19.3307 135.418 19.1973 135.344 19.112C135.28 19.0267 135.178 18.9787 135.04 18.968L132.64 18.632C131.893 18.5253 131.29 18.28 130.832 17.896C130.384 17.512 130.16 16.872 130.16 15.976V14.296C130.16 13.3893 130.453 12.696 131.04 12.216C131.626 11.7253 132.437 11.48 133.472 11.48H137.952C138.154 11.48 138.298 11.528 138.384 11.624C138.48 11.7093 138.528 11.8533 138.528 12.056V13.96C138.528 14.1627 138.48 14.312 138.384 14.408C138.298 14.4933 138.154 14.536 137.952 14.536H134.224C134.085 14.536 133.978 14.584 133.904 14.68C133.829 14.7653 133.792 14.8773 133.792 15.016C133.792 15.1547 133.829 15.272 133.904 15.368C133.978 15.464 134.085 15.5173 134.224 15.528L136.608 15.848C137.354 15.9547 137.957 16.2 138.416 16.584C138.874 16.968 139.104 17.608 139.104 18.504V20.184C139.104 21.0907 138.805 21.7893 138.208 22.28C137.621 22.76 136.816 23 135.792 23ZM148.854 23H141.43C141.227 23 141.078 22.9573 140.982 22.872C140.897 22.776 140.854 22.6267 140.854 22.424V12.056C140.854 11.8533 140.897 11.7093 140.982 11.624C141.078 11.528 141.227 11.48 141.43 11.48H148.854C149.057 11.48 149.201 11.528 149.286 11.624C149.382 11.7093 149.43 11.8533 149.43 12.056V13.928C149.43 14.1307 149.382 14.28 149.286 14.376C149.201 14.4613 149.057 14.504 148.854 14.504H144.438V15.736H147.558C147.761 15.736 147.905 15.784 147.99 15.88C148.086 15.9653 148.134 16.1093 148.134 16.312V18.024C148.134 18.2267 148.086 18.376 147.99 18.472C147.905 18.5573 147.761 18.6 147.558 18.6H144.438V19.976H148.854C149.057 19.976 149.201 20.024 149.286 20.12C149.382 20.2053 149.43 20.3493 149.43 20.552V22.424C149.43 22.6267 149.382 22.776 149.286 22.872C149.201 22.9573 149.057 23 148.854 23ZM154.939 14.36V16.408H156.139C156.416 16.408 156.603 16.3387 156.699 16.2C156.795 16.0507 156.843 15.8693 156.843 15.656V15.112C156.843 14.8987 156.795 14.7227 156.699 14.584C156.603 14.4347 156.416 14.36 156.139 14.36H154.939ZM154.363 23H151.899C151.696 23 151.547 22.9573 151.451 22.872C151.365 22.776 151.323 22.6267 151.323 22.424V12.056C151.323 11.8533 151.365 11.7093 151.451 11.624C151.547 11.528 151.696 11.48 151.899 11.48H157.227C158.421 11.48 159.243 11.7307 159.691 12.232C160.149 12.7227 160.379 13.3627 160.379 14.152V14.888C160.379 15.336 160.309 15.72 160.171 16.04C160.043 16.3493 159.813 16.5733 159.483 16.712C160.059 16.776 160.523 17.0107 160.875 17.416C161.237 17.8213 161.419 18.36 161.419 19.032V22.424C161.419 22.6267 161.371 22.776 161.275 22.872C161.189 22.9573 161.045 23 160.843 23H158.363C158.16 23 158.011 22.9573 157.915 22.872C157.829 22.776 157.787 22.6267 157.787 22.424V19.976C157.787 19.7413 157.739 19.5707 157.643 19.464C157.557 19.3467 157.403 19.288 157.179 19.288H154.939V22.424C154.939 22.6267 154.891 22.776 154.795 22.872C154.709 22.9573 154.565 23 154.363 23Z" fill="#fff"/>
</svg>
